# xmcd
#
# Track frame offsets: 
#        150
#        12827
#        31665
#        57330
#        84614
#        113860
#        132563
#        153339
#        166797
#        182098
#        208615
#        211464
#
# Disc length: 2978 seconds
#
# Revision: 0
# Processed by: cddbd v1.5.2PL0 Copyright (c) Steve Scherf et al.
# Submitted via: ExactAudioCopy v0.99pb4
#
DISCID=9c0ba00c
DTITLE=Mitch Hillford - Trouble in mind
DYEAR=2005
DGENRE=Blues
TTITLE0=Phunky thang
TTITLE1=Seagull's cry
TTITLE2=Red telephone call
TTITLE3=081002 to 291104
TTITLE4=Fairytails
TTITLE5=Come on pt. IV
TTITLE6=Nobody prays
TTITLE7=Dead shrimps
TTITLE8=She belongs to me
TTITLE9=From time to time
TTITLE10=Ants' dance
TTITLE11=Kay's walk
EXTD=
EXTT0=
EXTT1=
EXTT2=
EXTT3=
EXTT4=
EXTT5=
EXTT6=
EXTT7=
EXTT8=
EXTT9=
EXTT10=
EXTT11=
PLAYORDER=
